<?xml version="1.0" encoding="UTF-8"?>
<svg width="210mm" height="297mm" version="1.1" viewBox="0 0 210 297" xmlns="http://www.w3.org/2000/svg" xmlns:cc="http://creativecommons.org/ns#" xmlns:dc="http://purl.org/dc/elements/1.1/" xmlns:rdf="http://www.w3.org/1999/02/22-rdf-syntax-ns#" xmlns:xlink="http://www.w3.org/1999/xlink">
<defs>
<clipPath id="clipPath220">
<use xlink:href="#g216"/>
</clipPath>
</defs>
<metadata>
<rdf:RDF>
<cc:Work rdf:about="">
<dc:format>image/svg+xml</dc:format>
<dc:type rdf:resource="http://purl.org/dc/dcmitype/StillImage"/>
<dc:title/>
</cc:Work>
</rdf:RDF>
</metadata>
<text transform="translate(44.889 61.99)" fill="#000000" font-family="sans-serif" font-size="10.583px" style="line-height:1.25;shape-inside:url(#rect1551);white-space:pre" xml:space="preserve"><tspan x="22.601562" y="291.48999" visibility="hidden"><tspan dx="0 5.5448637 5.9892797 5.9892788 5.5345287 4.2322865 7.2708511" font-family="'Segoe UI Historic'">Tune-Up</tspan></tspan></text>
<g transform="translate(2.1167)">
<g clip-path="url(#clipPath220)">
<g id="g216">
<g transform="matrix(2.2589 -.0076884 .0076884 2.2589 -330.18 -279.01)">
<path d="m164.63 167.29-3.5631 2.1089-0.0191 19.67 0.89814-0.50023c0.82408-2.9483 4.1305 0.92261 0.54363 1.0278l-1.418 1.0501-0.0517 4.0943 3.174 1.7327 3.2494-1.7498-2.5461-1.4552c-3.7885 0.16923-0.89442-4.1038 0.60409-1.1508l3.2634 1.7141 3.3192-1.927-0.0362-6.9448c-2.6571-2.9802 3.6791-3.1313 1.1271 0.0729v2.1451l2.8722-1.5994-0.10903-7.2719-3.1631-2.1735-2.9285 1.326c-1.8659 2.7537-3.949-1.6868-0.44855-1.1591l2.5404-1.1203 0.0558-3.4964-3.4008-1.9575-2.3053 1.5079c-0.45476 0.27285-0.44284 0.58435-0.53072 0.89194l0.0558 7.3809 2.4169 1.3451c2.9434-0.32414 0.80065 3.5588-0.69092 1.3451l-2.8376-1.418c-0.54477-0.31276-0.65051-0.31767-0.63355-0.98134l-0.0558-7.8414c-0.78849-0.70479-0.0424-2.0864 1.0909-1.7213l1.927-1.2723zm-0.3421 15.371c0.34324-7.9e-4 0.7316 0.19438 1.1059 0.70745l3.8178 2.2908v3.6721c1.6529 2.5465-2.8531 2.6356-1.3818 0v-3.0902l-2.7631-1.5999c-2.6518 0.52803-2.0046-1.9773-0.77877-1.9802z" fill="#fff"/>
<path d="m160.31 190.9 0.0291-1.5776c-2.3558 0.28513-5.1448-1.2895-6.5382-2.9471-3.2473-3.8632-1.5645-11.161 5.4412-11.56l0.0706-6.4731-1.3796-0.0824 0.0266 2.4746-1.4354 0.49776-1.3481-2.1186-3.4401 1.7041 0.83811 2.1379-1.2416 1.2318-1.7793-1.1871-2.3985 3.194 1.8786 1.4815-0.35137 1.8072-2.5425-0.12124-0.0721 4.363 2.3293-0.0313c0.0583 0.43502 0.24637 0.93729 0.49656 1.4717l-2.3066 1.6363 2.0702 3.267 1.7903-1.3226 1.6218 1.5457-1.4488 1.9888 3.4218 2.1151 1.6644-1.9089 1.5832 0.52577-0.0446 2.4359 1.3832-0.0266 0.0133-3.6738c-1.0634-0.13456-2.072-0.0858-3.3843-1.0588l-0.77044 1.2839c-0.71948 0.24655-1.2932 0.22427-1.3966-0.66506l0.77892-1.5383c-0.91611-0.68474-1.8103-1.4034-2.4249-2.5547l-1.4003 0.53536c-1.271 0.33605-1.5005-0.59699-0.54747-1.0369l1.1932-0.86967c-0.59746-1.2204-1.0375-2.4356-1.1518-3.6399l-1.416-0.0834c-0.48135-0.38844-0.95885-0.77723 0.0801-1.307l1.6049-0.12839c-3e-3 -1.2006 0.30449-2.3908 0.88317-3.572l-0.84906-0.71955c-1.0653-0.86944-0.40626-1.7408 0.728-1.1034l0.9242 0.64928c1.0155-1.5379 1.8843-1.8994 2.7727-2.4176l-0.54988-0.96422c-0.73309-1.7203 0.77663-1.9196 1.2646-0.83085l0.69282 1.0417 1.2888-0.4663 0.36091 1.1762c-7.1231 0.9192-8.1282 9.2244-4.9026 13.823 1.9163 2.7319 4.9209 3.7392 7.8891 3.5993z" fill="#fff"/>
</g>
<rect transform="rotate(-.19501)" x="75.524" y="96.481" width="1.8482" height="70.128" fill="#fff" style="paint-order:markers fill stroke"/>
<text transform="matrix(2.2589 -.0076884 .0076884 2.2589 -249.65 -470.25)" fill="#ffffff" font-family="sans-serif" font-size="10.583px" style="line-height:1.25;shape-inside:url(#rect1602);white-space:pre" xml:space="preserve"><tspan x="147.46289" y="267.23874"><tspan fill="#ffffff" font-family="Poppins" font-weight="500">EMS</tspan></tspan></text>
<text transform="rotate(-.19501)" x="85.732063" y="144.36981" fill="#ffffff" font-family="sans-serif" font-size="10.36px" stroke-width=".59767" style="line-height:1.25" xml:space="preserve"><tspan x="85.732063" y="144.36981" fill="#ffffff" font-family="Poppins" font-size="10.36px" stroke-width=".59767">Ease Mechanic System</tspan></text>
</g>
</g>
</g>
</svg>
